<?xml version="1.0" encoding="UTF-8"?><svg id="a" xmlns="http://www.w3.org/2000/svg" xmlns:xlink="http://www.w3.org/1999/xlink" viewBox="0 0 1200 1200"><defs><linearGradient id="b" x1="600" y1="1200" x2="600" y2="0" gradientUnits="userSpaceOnUse"><stop offset="0" stop-color="#24734d"/><stop offset="1" stop-color="#41e696"/></linearGradient></defs><rect width="1200" height="1200" rx="200" ry="200" fill="url(#b)"/><polygon points="310 890 310 310 450 310 450 210 210 210 210 990 450 990 450 890 310 890" fill="#f2f2f2"/><polygon points="750 210 750 310 890 310 890 890 750 890 750 990 990 990 990 210 750 210" fill="#f2f2f2"/><path d="M504.8,823.12l-79.05-55.25,62.05-87.55c8.5-11.9,16.71-21.81,24.65-29.75s16.71-15.58,26.35-22.95c-11.9-1.13-23.38-2.68-34.42-4.67-11.05-1.98-22.52-5.23-34.42-9.78l-99.45-36.55,33.15-90.95,99.45,36.55c11.9,4.54,22.66,9.5,32.3,14.88,9.63,5.39,19.26,11.47,28.9,18.27-3.97-11.33-7.09-22.95-9.35-34.85-2.27-11.9-3.4-26.06-3.4-42.5v-101.15h96.9v101.15c0,16.44-1.14,30.6-3.4,42.5-2.27,11.9-5.39,23.52-9.35,34.85,9.63-6.8,19.26-12.88,28.9-18.27,9.63-5.38,20.4-10.33,32.3-14.88l99.45-36.55,33.15,90.95-99.45,36.55c-11.9,4.54-23.38,7.8-34.42,9.78-11.05,1.99-22.53,3.55-34.42,4.67,9.63,7.37,18.41,15.02,26.35,22.95,7.93,7.94,16.15,17.85,24.65,29.75l62.05,87.55-79.05,55.25-62.9-86.7c-7.94-11.33-14.32-22.1-19.12-32.3-4.82-10.2-9.22-20.96-13.17-32.3-3.97,11.34-8.37,22.1-13.17,32.3-4.82,10.2-11.2,20.97-19.12,32.3l-62.9,86.7Z" fill="#e6e6e6"/></svg>