<svg xmlns="http://www.w3.org/2000/svg" viewBox="0 0 1200 1200"><defs><linearGradient id="a" x1="600" x2="600" y1="1200" y2="0" gradientUnits="userSpaceOnUse"><stop offset="0" stop-color="#24734d"/><stop offset="1" stop-color="#41e696"/></linearGradient></defs><rect width="1200" height="1200" fill="url(#a)" rx="200" ry="200"/><path fill="#f2f2f2" d="M310 890V310h140V210H210v780h240V890zM750 210v100h140v580H750v100h240V210z"/><path fill="#e6e6e6" d="m505 823-79-55 62-88a237 237 0 0 1 51-52 416 416 0 0 1-69-15l-99-36 33-91 99 36a247 247 0 0 1 61 33 242 242 0 0 1-12-77V377h96v101a231 231 0 0 1-12 77 326 326 0 0 1 61-33l99-36 34 91-100 36q-18 7-34 10l-35 5a266 266 0 0 1 51 52l62 88-79 55-63-87a221 221 0 0 1-32-64 338 338 0 0 1-32 64z"/></svg>